HIERARCHY
ROOT Hips
{
 OFFSET 0.000000 0.000000 0.000000
 CHANNELS 6 Xposition Yposition Zposition Yrotation Xrotation Zrotation
 JOINT Chest
 {
  OFFSET 0.000000 9.581000 -0.001100
  CHANNELS 3 Yrotation Xrotation Zrotation
  JOINT Chest2
  {
   OFFSET 0.000000 9.561100 0.002200
   CHANNELS 3 Yrotation Xrotation Zrotation
   JOINT Chest3
   {
    OFFSET 0.000000 9.521100 0.000000
    CHANNELS 3 Yrotation Xrotation Zrotation
    JOINT Chest4
    {
     OFFSET 0.000000 9.511400 0.000000
     CHANNELS 3 Yrotation Xrotation Zrotation
     JOINT Neck
     {
      OFFSET 0.000000 14.375100 0.000000
      CHANNELS 3 Yrotation Xrotation Zrotation
      JOINT Head
      {
       OFFSET 0.000000 8.901200 0.004600
       CHANNELS 3 Yrotation Xrotation Zrotation
       End Site
       {
        OFFSET 0.000000 16.962200 0.002400
       }
      }
     }
     JOINT RightCollar
     {
      OFFSET -2.920100 9.518800 0.000000
      CHANNELS 3 Yrotation Xrotation Zrotation
      JOINT RightShoulder
      {
       OFFSET -13.664500 0.000000 0.000000
       CHANNELS 3 Yrotation Xrotation Zrotation
       JOINT RightElbow
       {
        OFFSET 0.000000 -29.999200 0.000000
        CHANNELS 3 Yrotation Xrotation Zrotation
        JOINT RightWrist
        {
         OFFSET 0.000000 -24.253600 0.000000
         CHANNELS 3 Yrotation Xrotation Zrotation
         End Site
         {
          OFFSET 0.000000 -17.918900 0.000000
         }
        }
       }
      }
     }
     JOINT LeftCollar
     {
      OFFSET 2.920100 9.518800 0.000000
      CHANNELS 3 Yrotation Xrotation Zrotation
      JOINT LeftShoulder
      {
       OFFSET 13.664500 0.000000 0.000000
       CHANNELS 3 Yrotation Xrotation Zrotation
       JOINT LeftElbow
       {
        OFFSET 0.000000 -29.999200 0.000000
        CHANNELS 3 Yrotation Xrotation Zrotation
        JOINT LeftWrist
        {
         OFFSET 0.000000 -24.253600 0.000000
         CHANNELS 3 Yrotation Xrotation Zrotation
         End Site
         {
          OFFSET 0.000000 -17.918900 0.000000
         }
        }
       }
      }
     }
    }
   }
  }
 }
 JOINT RightHip
 {
  OFFSET -7.797300 0.005300 0.000500
  CHANNELS 3 Yrotation Xrotation Zrotation
  JOINT RightKnee
  {
   OFFSET 0.000000 -40.663400 -0.000500
   CHANNELS 3 Yrotation Xrotation Zrotation
   JOINT RightAnkle
   {
    OFFSET 0.000000 -39.523700 -0.000900
    CHANNELS 3 Yrotation Xrotation Zrotation
    JOINT RightToe
    {
     OFFSET 0.000000 -6.418000 14.485300
     CHANNELS 3 Yrotation Xrotation Zrotation
     End Site
     {
      OFFSET 0.000000 -1.465200 6.326400
     }
    }
   }
  }
 }
 JOINT LeftHip
 {
  OFFSET 7.797300 0.005300 0.000500
  CHANNELS 3 Yrotation Xrotation Zrotation
  JOINT LeftKnee
  {
   OFFSET 0.000000 -40.663400 -0.000500
   CHANNELS 3 Yrotation Xrotation Zrotation
   JOINT LeftAnkle
   {
    OFFSET 0.000000 -39.523700 -0.000900
    CHANNELS 3 Yrotation Xrotation Zrotation
    JOINT LeftToe
    {
     OFFSET 0.000000 -6.418000 14.485300
     CHANNELS 3 Yrotation Xrotation Zrotation
     End Site
     {
      OFFSET 0.000000 -1.465200 6.326400
     }
    }
   }
  }
 }
}
MOTION
Frames: 13
Frame Time: 0.008333
0.000000 86.422400 0.000000 0.000000 -5.767877 0.000000 0.000000 11.653817 0.000000 0.000000 -5.885947 0.000000 0.000000 -0.000000 0.000000 0.000000 -0.000000 0.000000 0.000000 12.528835 0.000000 0.000000 0.711642 0.000000 0.000000 -0.000000 0.000000 0.000000 0.000000 -90.000000 0.000000 -2.309062 0.000000 0.000000 2.309062 0.000000 0.000000 -0.000000 0.000000 0.000000 -0.000000 90.000000 0.000000 -2.309062 0.000000 0.000000 2.309062 0.000000 0.000000 8.520406 0.000000 0.000000 1.905762 0.000000 -0.000000 -4.658285 0.000000 0.000000 -0.000000 0.000000 0.000000 8.520406 0.000000 0.000000 1.905762 0.000000 -0.000000 -4.658285 0.000000 0.000000 -0.000000 0.000000
-22.629941 126.413913 60.861206 -177.949979 -28.061271 -2.569192 -1.212442 22.802259 0.385633 -0.180307 3.254401 0.085613 -0.289728 5.267629 0.133616 -1.010512 19.209757 0.360081 3.790626 15.924602 -2.973993 4.726308 -8.884213 -4.036598 -5.769272 -1.164791 1.206829 -15.184072 -10.749582 -0.350434 -101.266217 -21.259564 97.337137 -29.804585 -11.895709 -9.977255 -6.359885 -0.662113 1.033816 12.451132 -12.272939 3.188355 78.195976 -31.015314 -91.361928 21.630169 -25.137199 34.361684 -9.284071 -49.395035 2.041422 -177.785270 68.612089 -169.280706 14.947083 -22.170835 -9.063886 -0.002656 -0.004536 -0.001177 -11.826764 -52.890507 -7.144142 31.764715 62.610560 23.595516 -1.124796 35.797076 1.717464 0.007185 0.022550 0.003185
-22.628263 126.412973 60.861467 -177.938587 -28.052219 -2.596679 -1.192679 22.795365 0.400095 -0.177734 3.252674 0.086441 -0.285749 5.264985 0.134804 -1.010738 19.209622 0.373508 3.792706 15.888823 -2.962921 4.705466 -8.899013 -4.004887 -5.745140 -1.193023 1.208992 -15.140972 -10.754820 -0.340349 -101.295726 -21.291008 97.320031 -29.802004 -11.840320 -9.977954 -6.369395 -0.683719 1.031302 12.462308 -12.331214 3.224887 78.204335 -31.005543 -91.374011 21.649695 -25.164557 34.318241 -9.297686 -49.394732 2.064856 -177.794304 68.615318 -169.277756 14.958333 -22.173539 -9.068445 -0.001556 -0.003837 -0.000689 -11.909463 -52.918191 -7.052874 31.746869 62.635145 23.554311 -1.126688 35.877150 1.702172 0.008867 0.017609 0.003930
-22.627180 126.410938 60.863664 -177.905485 -28.029600 -2.631570 -1.176435 22.769860 0.412391 -0.190023 3.253049 0.096760 -0.261172 5.247755 0.119454 -1.015272 19.217826 0.396056 3.780661 15.868406 -2.940670 4.687714 -8.915773 -3.973682 -5.752451 -1.194309 1.225180 -15.078012 -10.779996 -0.330643 -101.260047 -21.312608 97.327950 -29.787637 -11.860254 -9.995443 -6.380852 -0.721441 1.022228 12.456599 -12.365096 3.277942 78.285495 -31.006170 -91.467630 21.651595 -25.163029 34.346840 -9.316618 -49.407303 2.077877 -177.830552 68.616249 -169.295705 14.965539 -22.179649 -9.071634 -0.001618 -0.002603 -0.000717 -12.061382 -52.977759 -6.911642 31.816014 62.662846 23.539806 -1.126695 35.937885 1.728864 0.004813 -0.009311 0.002132
-22.628617 126.410069 60.863545 -177.899883 -28.025354 -2.639384 -1.174077 22.764984 0.416788 -0.174094 3.246921 0.086436 -0.258639 5.237787 0.117905 -0.975841 19.187254 0.378705 3.753277 15.879021 -2.884075 4.669807 -8.926777 -3.941760 -5.785814 -1.158629 1.269134 -15.056854 -10.784440 -0.325169 -101.188971 -21.301529 97.351446 -29.774483 -11.873279 -10.004519 -6.408664 -0.750823 1.037059 12.438623 -12.369272 3.334439 78.329939 -31.003246 -91.510050 21.664456 -25.183329 34.331636 -9.283729 -49.410524 2.067342 -177.860630 68.614013 -169.301777 14.949416 -22.187409 -9.064120 -0.000004 -0.002851 -0.000002 -12.104539 -53.003466 -6.867927 31.914204 62.663566 23.597629 -1.146745 36.013768 1.749919 -0.001359 -0.012596 -0.000602
-22.628050 126.409070 60.864017 -177.893934 -28.018887 -2.659026 -1.155518 22.751945 0.425171 -0.171581 3.242790 0.086124 -0.251460 5.227392 0.120184 -0.970615 19.186769 0.384575 3.747358 15.866059 -2.865735 4.651151 -8.932399 -3.910394 -5.739208 -1.205234 1.272504 -15.015343 -10.773587 -0.320181 -101.188804 -21.303324 97.323520 -29.772040 -11.860836 -9.997062 -6.409007 -0.796281 1.030782 12.427196 -12.381692 3.371169 78.360013 -31.003919 -91.528547 21.680607 -25.207856 34.297921 -9.200705 -49.416902 2.044677 -177.886518 68.610590 -169.264522 14.914808 -22.198627 -9.044118 0.004903 -0.004217 0.002172 -12.137011 -53.027984 -6.831640 32.027561 62.659793 23.680599 -1.128856 36.097944 1.811483 -0.004383 -0.006775 -0.001942
-22.629719 126.408079 60.864662 -177.886418 -28.013831 -2.665327 -1.137112 22.737755 0.425086 -0.169644 3.238311 0.086074 -0.251531 5.213778 0.118286 -0.979177 19.206738 0.399211 3.748583 15.847101 -2.861986 4.633384 -8.942378 -3.882438 -5.701409 -1.251093 1.266565 -14.946435 -10.783892 -0.313977 -101.233264 -21.322325 97.275166 -29.809392 -11.803434 -9.981521 -6.396557 -0.855593 1.013521 12.407677 -12.358093 3.405940 78.431689 -31.018933 -91.590258 21.682948 -25.183576 34.325743 -9.174203 -49.424342 2.034023 -177.907870 68.606096 -169.268384 14.903243 -22.203675 -9.035245 0.003107 -0.005283 0.001377 -12.119526 -53.046609 -6.847944 32.122527 62.654003 23.762859 -1.123232 36.128328 1.868912 -0.009333 -0.010890 -0.004135
-22.630608 126.407749 60.864546 -177.876955 -28.016227 -2.676421 -1.125138 22.724630 0.424248 -0.166971 3.233603 0.085781 -0.246511 5.202895 0.117982 -0.964367 19.200090 0.399605 3.735255 15.846786 -2.839207 4.616955 -8.931807 -3.854139 -5.695724 -1.256387 1.278604 -14.891135 -10.791349 -0.308673 -101.187057 -21.277740 97.255010 -29.792852 -11.820281 -9.978153 -6.410776 -0.865484 1.017177 12.408566 -12.404615 3.426302 78.462294 -31.032909 -91.586841 21.696126 -25.207380 34.272081 -9.177796 -49.421107 2.041199 -177.940587 68.602049 -169.296711 14.886128 -22.211719 -9.026250 -0.001214 -0.006812 -0.000538 -12.073783 -53.051418 -6.887480 32.174547 62.650692 23.825605 -1.116371 36.146209 1.918599 -0.013714 -0.014322 -0.006075
-22.632040 126.407478 60.864761 -177.866039 -28.018620 -2.683774 -1.114996 22.706064 0.420547 -0.164677 3.228793 0.084918 -0.253108 5.212917 0.125010 -0.944732 19.171132 0.387495 3.726735 15.844555 -2.819807 4.597079 -8.918784 -3.823890 -5.689331 -1.258330 1.292262 -14.839847 -10.793504 -0.303607 -101.136293 -21.227417 97.239912 -29.733122 -11.890492 -9.988240 -6.430020 -0.842218 1.032280 12.421297 -12.469136 3.426887 78.497998 -31.057524 -91.585340 21.696315 -25.219669 34.230274 -9.161946 -49.420381 2.026894 -177.951614 68.589200 -169.294389 14.916656 -22.208829 -9.041273 0.005144 -0.004839 0.002279 -11.998485 -53.050294 -6.955586 32.163565 62.651692 23.855242 -1.116632 36.151616 1.936878 -0.013559 -0.015861 -0.006006
-22.633518 126.407173 60.865538 -177.858394 -28.019303 -2.688008 -1.101412 22.688800 0.416176 -0.162168 3.223742 0.084108 -0.260765 5.220626 0.131650 -0.923078 19.144070 0.375065 3.714159 15.849642 -2.799239 4.576140 -8.922983 -3.798044 -5.686432 -1.264163 1.308449 -14.793655 -10.790901 -0.298777 -101.104891 -21.196667 97.227338 -29.695905 -11.935069 -9.999017 -6.452458 -0.820379 1.049711 12.432075 -12.511264 3.424782 78.548427 -31.096035 -91.605103 21.681806 -25.212558 34.227161 -9.159001 -49.421627 2.020581 -177.946791 68.581471 -169.283398 14.926847 -22.210154 -9.045158 0.006829 -0.005494 0.003025 -11.906031 -53.045886 -7.037928 32.136064 62.647754 23.877173 -1.102175 36.162539 1.967987 -0.009009 -0.011682 -0.003991
-22.635217 126.407228 60.866147 -177.858448 -28.023296 -2.686121 -1.077253 22.676573 0.412187 -0.160264 3.218573 0.083263 -0.235679 5.180999 0.116385 -0.901447 19.120237 0.369644 3.679316 15.912583 -2.740444 4.559014 -8.937211 -3.786395 -5.712279 -1.225926 1.347810 -14.750058 -10.783028 -0.294551 -101.075610 -21.172525 97.223810 -29.756767 -11.853092 -9.979537 -6.473439 -0.823605 1.049202 12.397102 -12.477006 3.480434 78.608978 -31.141195 -91.639349 21.664392 -25.209001 34.226391 -9.162319 -49.420211 2.019508 -177.932047 68.575501 -169.275507 14.931146 -22.213185 -9.042015 0.005073 -0.006110 0.002248 -11.850622 -53.041251 -7.085792 32.130186 62.647124 23.886886 -1.078720 36.180222 2.014096 -0.005214 -0.001964 -0.002310
-22.637477 126.407286 60.867236 -177.858371 -28.025974 -2.679607 -1.061850 22.660218 0.400296 -0.158131 3.213529 0.082258 -0.229758 5.172228 0.117737 -0.891020 19.107192 0.367456 3.662179 15.938236 -2.718092 4.540465 -8.953705 -3.776664 -5.709900 -1.230278 1.356896 -14.743812 -10.750838 -0.292565 -101.022452 -21.144169 97.246006 -29.764018 -11.813730 -9.979718 -6.485552 -0.808473 1.051341 12.381188 -12.464110 3.501544 78.699351 -31.184142 -91.706432 21.648642 -25.204501 34.218089 -9.172626 -49.421219 2.015526 -177.916229 68.568642 -169.274758 14.935138 -22.216762 -9.037439 0.001689 -0.007056 0.000748 -11.789829 -53.038121 -7.140180 32.068628 62.651669 23.845068 -1.044887 36.199980 2.046446 -0.007298 0.003558 -0.003234
-22.639198 126.407356 60.868842 -177.845420 -28.026735 -2.681039 -1.038161 22.629040 0.394091 -0.155243 3.202031 0.081130 -0.243856 5.181410 0.124411 -0.886111 19.106676 0.369436 3.654025 15.901098 -2.723570 4.516616 -8.923483 -3.742787 -5.700727 -1.244972 1.357439 -14.736782 -10.718571 -0.287835 -100.974827 -21.127530 97.273157 -29.752080 -11.793838 -9.989838 -6.501045 -0.782348 1.059817 12.403127 -12.513111 3.489243 78.738544 -31.222963 -91.722368 21.635881 -25.199147 34.206051 -9.201510 -49.416997 2.018323 -177.902347 68.567551 -169.279697 14.957846 -22.219453 -9.048031 0.003979 -0.004613 0.001763 -11.703836 -53.031013 -7.224050 31.981107 62.648229 23.811680 -1.027160 36.223415 2.057917 -0.006308 0.009222 -0.002796
